<?xml version="1.0" encoding="UTF-8" standalone="no"?>
<svg
   xmlns:dc="http://purl.org/dc/elements/1.1/"
   xmlns:cc="http://creativecommons.org/ns#"
   xmlns:rdf="http://www.w3.org/1999/02/22-rdf-syntax-ns#"
   xmlns:svg="http://www.w3.org/2000/svg"
   xmlns="http://www.w3.org/2000/svg"
   xmlns:sodipodi="http://sodipodi.sourceforge.net/DTD/sodipodi-0.dtd"
   xmlns:inkscape="http://www.inkscape.org/namespaces/inkscape"
   width="210mm"
   height="297mm"
   viewBox="0 0 210 297"
   version="1.1"
   id="svg8"
   sodipodi:docname="rysunek.svg"
   inkscape:version="1.0.2-2 (e86c870879, 2021-01-15)">
  <defs
     id="defs2" />
  <sodipodi:namedview
     id="base"
     pagecolor="#ffffff"
     bordercolor="#666666"
     borderopacity="1.0"
     inkscape:pageopacity="0.0"
     inkscape:pageshadow="2"
     inkscape:zoom="0.35"
     inkscape:cx="1038.5714"
     inkscape:cy="560"
     inkscape:document-units="mm"
     inkscape:current-layer="layer1"
     inkscape:document-rotation="0"
     showgrid="false"
     inkscape:window-width="1920"
     inkscape:window-height="1020"
     inkscape:window-x="0"
     inkscape:window-y="0"
     inkscape:window-maximized="0" />
  <metadata
     id="metadata5">
    <rdf:RDF>
      <cc:Work
         rdf:about="">
        <dc:format>image/svg+xml</dc:format>
        <dc:type
           rdf:resource="http://purl.org/dc/dcmitype/StillImage" />
        <dc:title></dc:title>
      </cc:Work>
    </rdf:RDF>
  </metadata>
  <g
     inkscape:label="Warstwa 1"
     inkscape:groupmode="layer"
     id="layer1">
    <path
       id="path833"
       style="fill:#00ff00;fill-rule:evenodd;stroke-width:6.99999;stroke-linejoin:bevel;paint-order:stroke markers fill"
       d="M 196.77734 171.42969 L 278.08203 267.18945 L 316.84961 276.97852 L 316.84961 453.39453 L 281.44336 468.27148 L 241.32227 567.82031 L 249.5 605.71484 L 315.42188 605.71484 L 315.42188 732.4082 L 181.57422 762.55664 L 106.73633 862.10742 L 121.98633 900 L 671.71289 900 L 686.98242 848.68555 L 396.84961 855.32617 L 686.95117 848.39844 L 591.74219 752.86328 L 478.2793 733.5918 L 478.2793 605.71484 L 544.19922 605.71484 L 552.38477 554.40039 L 396.84961 561.03711 L 552.37109 554.11328 L 501.32812 458.57812 L 476.84961 450.82227 L 476.84961 277.125 L 523.97461 261.81836 L 596.92383 171.42969 L 196.77734 171.42969 z "
       transform="scale(0.26458333)" />
  </g>
</svg>
